<svg xmlns="http://www.w3.org/2000/svg" viewBox="0 0 1200 300" role="img" aria-labelledby="title desc">
  <title id="title">GPT-SoVITS-RS</title>
  <desc id="desc">A Rust text-to-speech inference banner with a waveform and neural nodes.</desc>
  <defs>
    <linearGradient id="wave" x1="0" x2="1" y1="0" y2="0">
      <stop offset="0" stop-color="#e96220"/>
      <stop offset="0.48" stop-color="#c7894f"/>
      <stop offset="1" stop-color="#279889"/>
    </linearGradient>
    <linearGradient id="mark" x1="0" x2="1" y1="0" y2="1">
      <stop offset="0" stop-color="#f07825"/>
      <stop offset="1" stop-color="#cc4f19"/>
    </linearGradient>
    <filter id="softShadow" x="-20%" y="-20%" width="140%" height="140%">
      <feDropShadow dx="0" dy="8" stdDeviation="10" flood-color="#101820" flood-opacity="0.12"/>
    </filter>
  </defs>

  <rect width="1200" height="300" rx="28" fill="#fbfaf7"/>

  <g opacity="0.24" fill="none" stroke="#d9d1c5" stroke-width="1.4">
    <path d="M32 226 C130 190 192 260 290 224 S470 188 570 218 S748 244 842 198 S1016 176 1168 214"/>
    <path d="M32 246 C130 210 192 280 290 244 S470 208 570 238 S748 264 842 218 S1016 196 1168 234"/>
  </g>

  <g filter="url(#softShadow)">
    <circle cx="154" cy="150" r="76" fill="#1f2a30"/>
    <circle cx="154" cy="150" r="58" fill="#fbfaf7"/>
    <circle cx="154" cy="150" r="47" fill="none" stroke="url(#mark)" stroke-width="10"/>
    <path d="M129 189 V111 h39c24 0 39 13 39 34 0 16-8 27-22 32l27 12h-31l-25-11h-4v11h-23Zm23-30h16c10 0 16-5 16-13s-6-13-16-13h-16v26Z" fill="url(#mark)"/>
  </g>

  <g fill="#1f2a30">
    <text x="265" y="119" font-family="Inter, ui-sans-serif, system-ui, -apple-system, Segoe UI, sans-serif" font-size="56" font-weight="760" letter-spacing="0">GPT-SoVITS-RS</text>
    <text x="268" y="165" font-family="Inter, ui-sans-serif, system-ui, -apple-system, Segoe UI, sans-serif" font-size="23" font-weight="520" fill="#51616a" letter-spacing="0">Rust inference for deployable GPT-SoVITS voice services</text>
  </g>

  <g transform="translate(270 205)" stroke="url(#wave)" stroke-linecap="round" stroke-width="5">
    <path d="M0 0 H38"/>
    <path d="M54 -8 V8"/>
    <path d="M70 -18 V18"/>
    <path d="M86 -29 V29"/>
    <path d="M102 -16 V16"/>
    <path d="M118 -7 V7"/>
    <path d="M142 0 H174"/>
    <path d="M192 -15 V15"/>
    <path d="M208 -31 V31"/>
    <path d="M224 -47 V47"/>
    <path d="M240 -61 V61"/>
    <path d="M256 -43 V43"/>
    <path d="M272 -28 V28"/>
    <path d="M288 -11 V11"/>
    <path d="M312 0 H356"/>
    <path d="M374 -12 V12"/>
    <path d="M390 -26 V26"/>
    <path d="M406 -42 V42"/>
    <path d="M422 -53 V53"/>
    <path d="M438 -39 V39"/>
    <path d="M454 -21 V21"/>
    <path d="M470 -8 V8"/>
    <path d="M494 0 H538"/>
    <path d="M556 -18 V18"/>
    <path d="M572 -34 V34"/>
    <path d="M588 -50 V50"/>
    <path d="M604 -36 V36"/>
    <path d="M620 -20 V20"/>
    <path d="M636 -9 V9"/>
    <path d="M658 0 H700"/>
  </g>

  <g transform="translate(980 84)" stroke="#8aa3a3" stroke-width="2">
    <path d="M16 60 74 22 130 66 98 138 35 124Z" fill="none"/>
    <path d="M16 60 98 138M74 22 35 124M130 66 35 124M74 22 98 138"/>
    <circle cx="16" cy="60" r="12" fill="#1f2a30"/>
    <circle cx="74" cy="22" r="10" fill="#279889"/>
    <circle cx="130" cy="66" r="13" fill="#279889"/>
    <circle cx="98" cy="138" r="10" fill="#1f2a30"/>
    <circle cx="35" cy="124" r="14" fill="#279889"/>
    <circle cx="67" cy="82" r="12" fill="#e96220"/>
    <circle cx="112" cy="110" r="11" fill="#e96220"/>
  </g>
</svg>
